# xmcd CD database file generated by OrangeCD 6.2
#
# Track frame offsets:
#	182
#	11497
#	23997
#	36565
#	47685
#	60002
#	72535
#	83880
#	95100
#	106495
#	117705
#	133292
#	143157
#	153710
#	167665
#	182047
#	194855
#	206370
#	216672
#	226087
#	236975
#	249755
#	262425
#	274860
#
# Disc length: 3851 seconds
#
# Revision: 3
# Processed by: cddbd v1.5.2PL0 Copyright (c) Steve Scherf et al.
# Submitted via: OrangeCD 6.2
#
DISCID=7a0f0918
DTITLE=Bo Diddley - Diddley Daddy
DYEAR=1988
DGENRE=R&B
TTITLE0=Bo Diddley
TTITLE1=I'm a Man
TTITLE2=You Don't Love Me (You Don't Care)
TTITLE3=Diddley Daddy
TTITLE4=She's Fine, She's Mine
TTITLE5=Pretty Thing
TTITLE6=Bring it to Jerome
TTITLE7=Diddy Wah Diddy
TTITLE8=I'm Looking for a Woman
TTITLE9=Who Do You Love
TTITLE10=Cops and Robbers
TTITLE11=Hey! Bo Diddley
TTITLE12=Mona (I Need You Baby)
TTITLE13=Before You Accuse Me
TTITLE14=Say Man
TTITLE15=Hush Your Mouth
TTITLE16=Bo's Guitar
TTITLE17=Willie and Lillie
TTITLE18=Crackin' Up
TTITLE19=I'm Sorry
TTITLE20=Nursery Rhyme
TTITLE21=The Story of Bo Diddley
TTITLE22=Road Runner
TTITLE23=You Can't Judge a Book by Looking at the Cover
EXTD=
EXTT0=
EXTT1=
EXTT2=
EXTT3=
EXTT4=
EXTT5=
EXTT6=
EXTT7=
EXTT8=
EXTT9=
EXTT10=
EXTT11=
EXTT12=
EXTT13=
EXTT14=
EXTT15=
EXTT16=
EXTT17=
EXTT18=
EXTT19=
EXTT20=
EXTT21=
EXTT22=
EXTT23=
PLAYORDER=
